<?xml version="1.0" encoding="UTF-8"?>
<svg width="182px" height="27px" viewBox="0 0 182 27" version="1.1" xmlns="http://www.w3.org/2000/svg" xmlns:xlink="http://www.w3.org/1999/xlink">
    <!-- Generator: Sketch 63.1 (92452) - https://sketch.com -->
    <title>logo</title>
    <desc>Created with Sketch.</desc>
    <g id="Page-1" stroke="none" stroke-width="1" fill="none" fill-rule="evenodd">
        <g id="logo" fill="#0B263C" fill-rule="nonzero">
            <path d="M96.26,4.196 C100.43,4.196 103.516,6.323 103.516,9.936 L103.516,13.762 C103.532,16.192 102.278,17.545 100.93,17.475 C102.76,17.575 103.611,18.973 103.639,21.756 L103.639,26.332 L95.529,26.332 L95.529,22.331 C95.624,21.255 95.097,20.581 93.981,20.28 L79.945,20.28 L79.945,26.335 L72.622,26.335 L72.622,4.196 L96.26,4.196 Z M128.567,4.193 C134.475,4.193 138.197,6.648 139.641,10.954 C140.091,12.285 140.324,13.792 140.321057,15.445 C140.321057,17.022 140.121,18.499 139.641,19.827 C138.348,23.586 135.035,26.162 128.801,26.335 L107.021,26.335 L107.021,4.193 L128.567,4.193 Z M162.522,4.193 L176.942,25.214 L177.698,26.335 L167.946,26.335 L166.024,23.585 L150.726,23.585 L148.676,26.335 L138.957,26.335 L139.641,25.415 L155.065,4.497 L155.264,4.193 L162.522,4.193 Z M46.097,18.897 L46.097,19.575 L69.387,19.575 L69.387,26.311 L37.632,26.311 L37.632,18.897 L46.097,18.897 L46.097,18.897 Z M23.967,4.169 C29.019,4.169 33.29,7.727 34.353,12.461 L26.191,12.461 C25.664,11.531 24.701,10.954 23.461,10.954 L11.34,10.954 C9.24,10.954 8.006,12.638 8.006,14.713 L8.006,15.615 C8.006,17.672 9.241,19.371 11.34,19.371 L23.46,19.371 C24.778,19.371 25.609,18.696 25.808,17.672 L16.135,17.672 L16.135,13.76 L34.555,13.76 C34.724,16.455 34.375,17.676 34.375,17.676 C33.391,22.481 29.099,26.139 23.966,26.139 L10.834,26.139 C7.268,26.139 4.112,24.364 2.191,21.681 C0.953,19.951 0.22,17.876 0.22,15.618 L0.22,14.716 C0.22,12.461 0.955,10.356 2.19,8.626 C4.115,5.923 7.27,4.17 10.834,4.17 L23.967,4.169 Z M127.33,10.985 L114.63,10.985 L114.63,19.605 L127.452,19.605 C127.654,19.605 127.857,19.575 128.059,19.55 C134.073,18.824 133.798,11.686 128.059,11.033 C127.844,11.009 127.581,10.985 127.329,10.985 L127.33,10.985 Z M56.05,13.759 L56.05,17.675 L37.631,17.675 L37.631,13.76 L56.048,13.76 L56.05,13.759 Z M158.864,12.264 L155.424,17.474 L162.443,17.474 L158.937,12.364 L158.864,12.264 L158.864,12.264 Z M94.573,10.757 L79.948,10.757 L79.948,14.093 L94.573,14.093 C96.773,14.114 96.493,10.733 94.573,10.757 L94.573,10.757 Z M69.387,4.193 L69.387,10.954 L46.097,10.954 L46.097,12.461 L37.632,12.461 L37.632,4.193 L69.387,4.193 Z M177.808,0.185 C180.027,0.21 181.746,1.939 181.743008,4.12 C181.743008,6.275 180.027,8.004 177.808,8.05 L177.701,8.05 C177.45,8.05 177.201,8.025 176.941,7.976 C175.048,7.626 173.638,6.05 173.638,4.12 C173.638,2.163 175.048,0.586 176.941,0.261 C177.205,0.21 177.45,0.185 177.701,0.185 L177.808,0.185 Z M177.808,0.985 L177.677,0.985 C177.422,0.985 177.174,1.015 176.941,1.085 C175.605,1.416 174.643,2.668 174.643,4.12 C174.643,5.573 175.605,6.794 176.941,7.15 C177.205,7.226 177.45,7.25 177.731,7.25 L177.808,7.25 C179.497,7.226 180.738,5.819 180.738,4.145 C180.738,2.413 179.497,1.039 177.808,0.985 Z M177.808,2.118 C178.495,2.139 178.786,2.239 179.04,2.416 C179.264,2.592 179.448,2.868 179.448,3.246 C179.448,3.746 179.095,4.044 178.63,4.193 L178.63,4.245 C179.019,4.345 179.187,4.667 179.313,5.196 C179.448,5.773 179.546,5.998 179.623,6.15 L178.63,6.15 C178.535,5.995 178.458,5.673 178.335,5.196 C178.29,4.844 178.133,4.667 177.808,4.622 C177.728,4.597 177.622,4.597 177.53,4.597 L177.098,4.597 L177.098,6.15 L176.166,6.15 L176.166,2.24 C176.384,2.218 176.644,2.167 176.941,2.14 C177.174,2.14 177.422,2.118 177.677,2.118 L177.808,2.118 Z M177.808,2.768 L177.622,2.768 C177.373,2.768 177.202,2.789 177.125,2.814 L177.125,3.944 L177.542,3.944 C177.652,3.944 177.732,3.944 177.808,3.92 C178.182,3.868 178.458,3.692 178.458,3.367 C178.458,3.042 178.228,2.814 177.808,2.768 L177.808,2.768 Z" id="Shape"></path>
        </g>
    </g>
</svg>