<?xml version="1.0" encoding="iso-8859-1"?>
<!-- Uploaded to: SVG Repo, www.svgrepo.com, Generator: SVG Repo Mixer Tools -->
<svg fill="#000000" height="800px" width="800px" version="1.1" id="Layer_1" xmlns="http://www.w3.org/2000/svg" xmlns:xlink="http://www.w3.org/1999/xlink" 
	 viewBox="0 0 472.615 472.615" xml:space="preserve">
<g>
	<g>
		<path d="M397.834,222.572h-33.694v-94.74C364.141,57.344,306.797,0,236.304,0c-70.484,0-127.828,57.344-127.828,127.833v94.74
			H74.78c-15.98,0-28.935,12.955-28.935,28.936V443.68c0,15.981,12.955,28.936,28.935,28.936h323.054
			c15.98,0,28.936-12.955,28.936-28.936V251.508C426.77,235.527,413.815,222.572,397.834,222.572z M269.122,410.06h-65.63
			l13.286-65.881c-8.021-5.982-13.286-15.458-13.286-26.235c0-18.124,14.692-32.817,32.815-32.817s32.815,14.693,32.815,32.817
			c0,10.777-5.265,20.254-13.287,26.235L269.122,410.06z M344.85,222.572H127.767v-94.74c0-59.85,48.688-108.542,108.537-108.542
			c59.849,0,108.546,48.692,108.546,108.542V222.572z"/>
	</g>
</g>
</svg>