<svg width="108" height="20" viewBox="0 0 108 20" fill="none" xmlns="http://www.w3.org/2000/svg">
<path d="M9.09748 1.89137C9.45972 1.13224 10.5403 1.13224 10.9025 1.89137L12.6464 5.54598C12.7922 5.85149 13.0826 6.06251 13.4182 6.10675L17.4329 6.63595C18.2668 6.74588 18.6007 7.77355 17.9907 8.35264L15.0538 11.1405C14.8083 11.3736 14.6974 11.715 14.759 12.0479L15.4963 16.0295C15.6494 16.8566 14.7752 17.4917 14.036 17.0905L10.477 15.1589C10.1795 14.9974 9.8205 14.9974 9.52298 15.1589L5.96402 17.0905C5.22476 17.4917 4.35057 16.8566 4.50372 16.0295L5.241 12.0479C5.30264 11.715 5.1917 11.3736 4.94619 11.1405L2.00934 8.35264C1.39931 7.77355 1.73322 6.74588 2.56712 6.63595L6.58176 6.10675C6.91737 6.06251 7.20781 5.85149 7.35359 5.54598L9.09748 1.89137Z" fill="#FFD600"/>
<path d="M31.0975 1.89137C31.4597 1.13224 32.5403 1.13224 32.9025 1.89137L34.6464 5.54598C34.7922 5.85149 35.0826 6.06251 35.4182 6.10675L39.4329 6.63595C40.2668 6.74588 40.6007 7.77355 39.9907 8.35264L37.0538 11.1405C36.8083 11.3736 36.6974 11.715 36.759 12.0479L37.4963 16.0295C37.6494 16.8566 36.7752 17.4917 36.036 17.0905L32.477 15.1589C32.1795 14.9974 31.8205 14.9974 31.523 15.1589L27.964 17.0905C27.2248 17.4917 26.3506 16.8566 26.5037 16.0295L27.241 12.0479C27.3026 11.715 27.1917 11.3736 26.9462 11.1405L24.0093 8.35264C23.3993 7.77355 23.7332 6.74588 24.5671 6.63595L28.5818 6.10675C28.9174 6.06251 29.2078 5.85149 29.3536 5.54598L31.0975 1.89137Z" fill="#FFD600"/>
<path d="M53.0975 1.89137C53.4597 1.13224 54.5403 1.13224 54.9025 1.89137L56.6464 5.54598C56.7922 5.85149 57.0826 6.06251 57.4182 6.10675L61.4329 6.63595C62.2668 6.74588 62.6007 7.77355 61.9907 8.35264L59.0538 11.1405C58.8083 11.3736 58.6974 11.715 58.759 12.0479L59.4963 16.0295C59.6494 16.8566 58.7752 17.4917 58.036 17.0905L54.477 15.1589C54.1795 14.9974 53.8205 14.9974 53.523 15.1589L49.964 17.0905C49.2248 17.4917 48.3506 16.8566 48.5037 16.0295L49.241 12.0479C49.3026 11.715 49.1917 11.3736 48.9462 11.1405L46.0093 8.35264C45.3993 7.77355 45.7332 6.74588 46.5671 6.63595L50.5818 6.10675C50.9174 6.06251 51.2078 5.85149 51.3536 5.54598L53.0975 1.89137Z" fill="#FFD600"/>
<path d="M75.0975 1.89137C75.4597 1.13224 76.5403 1.13224 76.9025 1.89137L78.6464 5.54598C78.7922 5.85149 79.0826 6.06251 79.4182 6.10675L83.4329 6.63595C84.2668 6.74588 84.6007 7.77355 83.9907 8.35264L81.0538 11.1405C80.8083 11.3736 80.6974 11.715 80.759 12.0479L81.4963 16.0295C81.6494 16.8566 80.7752 17.4917 80.036 17.0905L76.477 15.1589C76.1795 14.9974 75.8205 14.9974 75.523 15.1589L71.964 17.0905C71.2248 17.4917 70.3506 16.8566 70.5037 16.0295L71.241 12.0479C71.3026 11.715 71.1917 11.3736 70.9462 11.1405L68.0093 8.35264C67.3993 7.77355 67.7332 6.74588 68.5671 6.63595L72.5818 6.10675C72.9174 6.06251 73.2078 5.85149 73.3536 5.54598L75.0975 1.89137Z" fill="#FFD600"/>
<path d="M97.0975 1.89137C97.4597 1.13224 98.5403 1.13224 98.9025 1.89137L100.646 5.54598C100.792 5.85149 101.083 6.06251 101.418 6.10675L105.433 6.63595C106.267 6.74588 106.601 7.77355 105.991 8.35264L103.054 11.1405C102.808 11.3736 102.697 11.715 102.759 12.0479L103.496 16.0295C103.649 16.8566 102.775 17.4917 102.036 17.0905L98.477 15.1589C98.1795 14.9974 97.8205 14.9974 97.523 15.1589L93.964 17.0905C93.2248 17.4917 92.3506 16.8566 92.5037 16.0295L93.241 12.0479C93.3026 11.715 93.1917 11.3736 92.9462 11.1405L90.0093 8.35264C89.3993 7.77355 89.7332 6.74588 90.5671 6.63595L94.5818 6.10675C94.9174 6.06251 95.2078 5.85149 95.3536 5.54598L97.0975 1.89137Z" fill="#FFD600"/>
</svg>
